<?xml version="1.0" encoding="utf-8"?>
<!-- Generator: Adobe Illustrator 19.1.0, SVG Export Plug-In . SVG Version: 6.00 Build 0)  -->
<svg version="1.1" id="Layer_1" xmlns="http://www.w3.org/2000/svg" xmlns:xlink="http://www.w3.org/1999/xlink" x="0px" y="0px"
	 viewBox="-1283.5 852.8 1056.7 379.2" enable-background="new -1283.5 852.8 1056.7 379.2" xml:space="preserve">
<path fill="#464646" d="M-347.7,981.2c-15.4,0-32.3,5.1-32.3-10.3c0-8.2,2.8-32,3.9-42.4c1.6-14.6-7.1-19.2-20.2-19.2
	c-20.7,0-47.9,2.7-66.5,11.7c-14.4,6.9-22.4,16.6-24.2,33.2l-18.7,164.9l-0.1-0.4c0,0-3.4,33.5-24.3,33.5
	c-11.1,0-19.3-6.8-18.8-17.8l28-257c0-20-11.3-24.6-29.2-24.6c-26.1,0-60,8.2-85.1,16.4c-20.5,6.7-44.1,14.9-44.1,40.5
	c0,10.3,5.6,14.9,15.9,14.9c4.1,0,8.2-1,12.3-1c8.7,0,10.8,4.1,9.7,12.3c-5.1,46.2-16.3,118.2-24.4,186.8
	c-0.9,6.3-5.7,30.8-23.2,30.8c-9,0-17.5-6.4-17.3-16.9c0.1-7,0.8-14.3,1.1-19c4.1-55.4,13.3-101.5,15.4-132.3
	c1-14.4-6.7-19.5-21-19.5c-15.9,0-29.2,6.2-43.6,13.3c-4.6,2.6-13.8,8.2-19.5,8.2c-14.9,0-29.2-24.6-65.1-21
	c-57.8,5.3-104,52.8-126.3,114.1l0-0.1c0,0-1.5,5.6-5,5.6c-3.2,0-5.9-11.3-5.9-11.3l-0.1,0.2c-13-48-55-76.2-98.9-100.1
	c-14.9-7.7-31.8-17.9-31.8-36.9c0-14.4,10.8-21.5,24.1-21.5c34.4,0,45.1,53.3,82.6,53.3c23.6,0,40-21,40-43.6
	c0-26.7-25.1-73.3-55.4-73.3c-14.4,0-23.6,8.7-30.3,8.7c-6.7,0-26.7-8.7-51.8-8.7c-70.8,0-139.5,42-139.5,119
	c0,97.9,122,126.7,122,171.8c0,19.5-16.9,24.2-34.4,24.2c-27.7,0-43.1-20.6-52.3-43.6c-7.7-20-15.4-44.1-41.5-44.1
	c-27.7,0-40,22.6-40,47.7c0,77.4,73.3,104.1,141,104.1c45.9,0,96.7-12.1,130.8-40.5l0,0c0.3-0.3,0.6-0.5,0.9-0.8c0,0,0,0,0.1,0
	c12.1-10.2,20.5-19.4,26.4-19.4c4.7,0,5.7,3.7,6.8,8.8l0-0.1c6.3,29.3,26.2,52,62.4,52c52.8,0,77.9-46.1,91.3-46.1
	c16.4,0-5.6,46.1,40,46.1c14.8,0,42.4-8,65.3-20.4l0.1,0.3c0,0,18.1-10.1,31.3-10.1c0,0,12.2,0,18.3,10.1l0-0.1
	c6.2,14.6,19.8,20.4,38.2,20.4c18.4,0,52.3-6.9,78.8-20.3l0,0c0,0,19.6-10.2,29.4-10.1c0,0,7.1-0.4,12.9,10.1l0.3-0.5
	c7.1,13.9,22.5,20.6,42.9,20.6c29.7,0,127.2-32.8,127.2-72.8c0-8.7-3.1-18.5-13.8-18.5c-7.7,0-16.9,9.7-29.2,9.7
	c-12.8,0-17.5-11.8-15-36.5l4.9-36.2c4.9-44.9,7.7-43.1,43.1-43.1c13.8,0,13.8-10.8,15.4-22c1-6.7,2.6-14.9,2.6-22
	C-331.2,982.7-341,981.2-347.7,981.2z M-853.5,1154.6c-10.3,1-11.8-12.3-11.8-20c-0.5-32.8,33.8-109.2,61-111.3
	c8.2-0.5,10.3,9.7,10.3,16.4C-793,1065.4-826.3,1152.5-853.5,1154.6z M-376.1,929c0-0.2,0-0.3,0-0.5c0-0.1,0-0.2,0-0.2L-376.1,929z
	 M-272.5,1140.5c25.3,0,45.7,20.5,45.7,45.7c0,25.3-20.5,45.7-45.7,45.7s-45.7-20.5-45.7-45.7
	C-318.2,1161-297.8,1140.5-272.5,1140.5z"/>
</svg>
